<svg width="232" height="36" viewBox="0 0 232 36" fill="none" xmlns="http://www.w3.org/2000/svg">
<path d="M16.546 36C13.2702 36 10.3788 35.2646 7.87187 33.7939C5.39833 32.2897 3.45961 30.1838 2.05571 27.4763C0.685237 24.7688 0 21.61 0 18C0 14.39 0.685237 11.2312 2.05571 8.52368C3.45961 5.81616 5.39833 3.72702 7.87187 2.25627C10.3788 0.752089 13.2702 0 16.546 0C19.8217 0 22.6964 0.752089 25.1699 2.25627C27.6769 3.76045 29.6156 5.88301 30.9861 8.62395C32.3565 11.3315 33.0418 14.4903 33.0418 18.1003C33.0418 21.6769 32.3565 24.8189 30.9861 27.5265C29.6156 30.234 27.6769 32.3231 25.1699 33.7939C22.663 35.2646 19.7883 36 16.546 36ZM16.546 29.6323C19.7214 29.6323 22.1114 28.663 23.7159 26.7242C25.3203 24.7521 26.1226 21.8106 26.1226 17.8997C26.1226 10.2451 22.9304 6.41783 16.546 6.41783C10.0947 6.41783 6.86908 10.2451 6.86908 17.8997C6.86908 21.8106 7.67131 24.7521 9.27577 26.7242C10.9136 28.663 13.337 29.6323 16.546 29.6323Z" fill="#F9F9F9"/>
<path d="M36.5996 0.802227H43.218V18.9025L53.9478 9.32591H62.4715L50.9395 19.5042L62.5718 35.1978H54.7501L46.4269 23.4652L43.218 26.273V35.1978H36.5996V0.802227Z" fill="#F9F9F9"/>
<path d="M77.1789 36C74.5382 36 72.2318 35.4318 70.2597 34.2953C68.2875 33.1588 66.7666 31.5543 65.697 29.4819C64.6273 27.4095 64.0925 25.0028 64.0925 22.2618C64.0925 19.5209 64.6273 17.1142 65.697 15.0418C66.7666 12.9694 68.2875 11.3649 70.2597 10.2284C72.2318 9.09192 74.5382 8.52368 77.1789 8.52368C79.8195 8.52368 82.1092 9.10863 84.048 10.2786C85.9867 11.415 87.4741 13.0195 88.5104 15.0919C89.58 17.1643 90.1148 19.5877 90.1148 22.3621C90.1148 25.1031 89.58 27.5098 88.5104 29.5822C87.4741 31.6212 85.97 33.2089 83.9978 34.3454C82.0591 35.4485 79.7861 36 77.1789 36ZM77.1287 30.5348C79.268 30.5348 80.8725 29.7827 81.9421 28.2786C83.0452 26.7744 83.5967 24.7521 83.5967 22.2117C83.5967 19.7047 83.0452 17.7159 81.9421 16.2451C80.8725 14.7409 79.268 13.9889 77.1287 13.9889C74.956 13.9889 73.3182 14.7409 72.2151 16.2451C71.1455 17.7159 70.6106 19.7047 70.6106 22.2117C70.6106 24.7521 71.1455 26.7744 72.2151 28.2786C73.3182 29.7827 74.956 30.5348 77.1287 30.5348Z" fill="#F9F9F9"/>
<path d="M125.832 21.3092H111.642V35.1978H104.823V0.802227H111.642V15.493H125.832V0.802227H132.651V35.1978H125.832V21.3092Z" fill="#F9F9F9"/>
<path d="M149.269 36C146.628 36 144.322 35.4318 142.35 34.2953C140.378 33.1588 138.857 31.5543 137.787 29.4819C136.717 27.4095 136.183 25.0028 136.183 22.2618C136.183 19.5209 136.717 17.1142 137.787 15.0418C138.857 12.9694 140.378 11.3649 142.35 10.2284C144.322 9.09192 146.628 8.52368 149.269 8.52368C151.91 8.52368 154.199 9.10863 156.138 10.2786C158.077 11.415 159.564 13.0195 160.6 15.0919C161.67 17.1643 162.205 19.5877 162.205 22.3621C162.205 25.1031 161.67 27.5098 160.6 29.5822C159.564 31.6212 158.06 33.2089 156.088 34.3454C154.149 35.4485 151.876 36 149.269 36ZM149.219 30.5348C151.358 30.5348 152.963 29.7827 154.032 28.2786C155.135 26.7744 155.687 24.7521 155.687 22.2117C155.687 19.7047 155.135 17.7159 154.032 16.2451C152.963 14.7409 151.358 13.9889 149.219 13.9889C147.046 13.9889 145.408 14.7409 144.305 16.2451C143.236 17.7159 142.701 19.7047 142.701 22.2117C142.701 24.7521 143.236 26.7744 144.305 28.2786C145.408 29.7827 147.046 30.5348 149.219 30.5348Z" fill="#F9F9F9"/>
<path d="M165.74 9.32591H172.308V13.2869C172.977 11.7827 173.896 10.6128 175.066 9.77716C176.236 8.9415 177.59 8.52368 179.127 8.52368C181.133 8.52368 182.854 9.09192 184.292 10.2284C185.762 11.3315 186.782 12.8524 187.35 14.7911C187.918 12.8524 188.838 11.3315 190.108 10.2284C191.378 9.09192 192.916 8.52368 194.721 8.52368C197.361 8.52368 199.484 9.45961 201.088 11.3315C202.693 13.1699 203.495 15.6267 203.495 18.702V35.1978H197.027V19.9554C197.027 17.7827 196.659 16.2284 195.924 15.2925C195.222 14.3231 194.069 13.8384 192.464 13.8384C191.027 13.8384 189.907 14.3398 189.105 15.3426C188.336 16.3454 187.935 17.7827 187.902 19.6546V35.1978H181.434V19.9554C181.434 17.7827 181.066 16.2284 180.331 15.2925C179.629 14.3231 178.476 13.8384 176.871 13.8384C175.434 13.8384 174.314 14.3398 173.512 15.3426C172.743 16.3454 172.342 17.7827 172.308 19.6546V35.1978H165.74V9.32591Z" fill="#F9F9F9"/>
<path d="M219.65 36C216.909 36 214.519 35.4318 212.48 34.2953C210.474 33.1588 208.92 31.571 207.817 29.532C206.747 27.4596 206.213 25.0362 206.213 22.2618C206.213 19.5209 206.747 17.1142 207.817 15.0418C208.887 12.9694 210.408 11.3649 212.38 10.2284C214.385 9.09192 216.725 8.52368 219.399 8.52368C223.343 8.52368 226.385 9.72702 228.525 12.1337C230.664 14.5404 231.75 17.9331 231.784 22.312V24.468H212.881C213.148 26.6407 213.817 28.2284 214.887 29.2312C215.956 30.2006 217.544 30.6852 219.65 30.6852C221.254 30.6852 222.474 30.3844 223.31 29.7827C224.179 29.1811 224.831 28.195 225.265 26.8245L231.583 28.4791C230.58 31.1198 229.126 33.0418 227.221 34.2451C225.349 35.415 222.825 36 219.65 36ZM225.265 20.0557C225.098 17.9499 224.53 16.3621 223.561 15.2925C222.625 14.1894 221.187 13.6379 219.249 13.6379C217.243 13.6379 215.722 14.1727 214.686 15.2423C213.65 16.312 213.031 17.9164 212.831 20.0557H225.265Z" fill="#F9F9F9"/>
</svg>
